# AST/ASF file generated using VICON BodyLanguage
# -----------------------------------------------
:version 1.10
:name VICON
:units
  mass 1.0
  length 0.45
  angle deg
:documentation
   .ast/.asf automatically generated from VICON data using
   VICON BodyBuilder and BodyLanguage model FoxedUp or BRILLIANT.MOD
:root
   order TX TY TZ RX RY RZ
   axis XYZ
   position 0 0 0  
   orientation 0 0 0 
:bonedata
  begin
     id 1 
     name lhipjoint
     direction 0.645897 -0.709066 0.282916 
     length 2.50918 
     axis 0 0 0  XYZ
  end
  begin
     id 2 
     name lfemur
     direction 0.34202 -0.939693 0  
     length 6.85725  
     axis 0 0 20  XYZ
    dof rx ry rz
    limits (-160.0 20.0)
           (-70.0 70.0)
           (-60.0 70.0)
  end
  begin
     id 3 
     name ltibia
     direction 0.34202 -0.939693 0   
     length 8.01778   
     axis 0 0 20   XYZ
    dof rx
    limits (-10.0 170.0)
  end
  begin
     id 4 
     name lfoot
     direction 0.0796011 -0.218702 0.972539   
     length 2.13962   
     axis -90 7.62852e-016 20   XYZ
    dof rx rz
    limits (-45.0 90.0)
           (-70.0 20.0)
  end
  begin
     id 5 
     name ltoes
     direction 1.53548e-011 -4.21881e-011 1   
     length 1.07476   
     axis -90 7.62852e-016 20   XYZ
    dof rx
    limits (-90.0 20.0)
  end
  begin
     id 6 
     name rhipjoint
     direction -0.63101 -0.720537 0.287493   
     length 2.46923  
     axis 0 0 0  XYZ 
  end
  begin
     id 7 
     name rfemur
     direction -0.34202 -0.939693 0   
     length 6.81957   
     axis 0 0 -20   XYZ
    dof rx ry rz
    limits (-160.0 20.0)
           (-70.0 70.0)
           (-70.0 60.0)
  end
  begin
     id 8 
     name rtibia
     direction -0.34202 -0.939693 0   
     length 8.15152   
     axis 0 0 -20   XYZ
    dof rx
    limits (-10.0 170.0)
 end
 begin
     id 9 
     name rfoot
     direction -0.105819 -0.290734 0.950934   
     length 2.14588  
     axis -90 -7.62852e-016 -20   XYZ
    dof rx rz
    limits (-45.0 90.0)
           (-20.0 70.0)
  end
  begin
     id 10 
     name rtoes
     direction -1.53512e-011 -4.22005e-011 1   
     length 1.0703   
     axis -90 -7.62852e-016 -20   XYZ
    dof rx
    limits (-90.0 20.0)
  end
  begin
     id 11 
     name lowerback
     direction 0.0114933 0.999236 0.0373542   
     length 1.91711   
     axis 0 0 0   XYZ
    dof rx ry rz
    limits (-20.0 45.0)
           (-30.0 30.0)
           (-30.0 30.0)
  end
  begin
     id 12 
     name upperback
     direction 0.00911529 0.998099 0.0609554   
     length 1.90888   
     axis 0 0 0   XYZ
    dof rx ry rz
    limits (-20.0 45.0)
           (-30.0 30.0)
           (-30.0 30.0)
  end
  begin
     id 13 
     name thorax
     direction 0.00357322 0.99911 0.0420379   
     length 1.90942   
     axis 0 0 0   XYZ
    dof rx ry rz
    limits (-20.0 45.0)
           (-30.0 30.0)
           (-30.0 30.0)
  end
  begin
     id 14 
     name lowerneck
     direction -0.0589311 0.997882 0.0275448   
     length 1.83956   
     axis 0 0 0   XYZ
    dof rx ry rz
    limits (-20.0 45.0)
           (-30.0 30.0)
           (-30.0 30.0)
  end
  begin
     id 15 
     name upperneck
     direction 0.0362633 0.960055 -0.277453   
     length 1.82031   
     axis 0 0 0   XYZ
    dof rx ry rz
    limits (-20.0 45.0)
           (-30.0 30.0)
           (-30.0 30.0)
  end
  begin
     id 16
     name head
     direction 0.0166719 0.995328 -0.0951042  
     length 1.86084  
     axis 0 0 0   XYZ
    dof rx ry rz
    limits (-20.0 45.0)
           (-30.0 30.0)
           (-30.0 30.0)
  end
  begin
     id 17 
     name lclavicle
     direction 0.90319 0.426238 0.0506919  
     length 3.17828  
     axis 0 0 0   XYZ
    dof ry rz
    limits (-20.0 10.0)
           (0.0 20.0)
  end
  begin
     id 18 
     name lhumerus
     direction 1 -4.48953e-011 6.78797e-028   
     length 5.43592   
     axis 180 -30 -90   XYZ
    dof rx ry rz
    limits (-60.0 90.0)
           (-90.0 90.0)
           (-90.0 90.0)
  end
  begin
     id 19
     name lradius
     direction 1 -4.48969e-011 7.02702e-027   
     length 3.2546   
     axis 180 -30 -90   XYZ
    dof rx
    limits (-10.0 170.0)
  end
  begin
     id 20
     name lwrist
     direction 1 -4.48975e-011 1.29807e-026   
     length 1.6273   
     axis -8.50346e-015 90 90   XYZ
    dof ry
    limits (-180.0 0.0)
 end
  begin
     id 21 
     name lhand
     direction 1 -4.48917e-011 2.59615e-026   
     length 0.498244   
     axis -1.65656e-014 90 90   XYZ
    dof rx rz
    limits (-90.0 90.0)
           (-45.0 45.0)
  end
  begin
     id 22 
     name lfingers
     direction 1 -4.48885e-011 5.1923e-026   
     length 0.401697   
     axis -3.31313e-014 90 90   XYZ
    dof rx
    limits (0.0 90.0)
  end
  begin
     id 23
     name lthumb
     direction 0.707107 -6.34946e-011 0.707107   
     length 0.576759   
     axis -90 45 2.85299e-015   XYZ
    dof rx rz
    limits (-45.0 45.0)
           (-45.0 45.0)
  end
  begin
     id 24 
     name rclavicle
     direction -0.908603 0.391432 0.145676   
     length 3.15477  
     axis 0 0 0   XYZ 
    dof ry rz
    limits (-10.0 20.0)
           (-20.0 0.0)
  end
  begin
     id 25 
     name rhumerus
     direction -1 -4.4898e-011 1.02852e-027  
     length 5.3383   
     axis 180 30 90   XYZ
    dof rx ry rz
    limits (-90.0 60.0)
           (-90.0 90.0)
           (-90.0 90.0)
  end
  begin
     id 26 
     name rradius
     direction -1 -4.48968e-011 7.05567e-027   
     length 3.23148   
     axis 180 30 90   XYZ
    dof rx
    limits (-10.0 170.0)
  end
  begin
     id 27 
     name rwrist
     direction -1 -4.48927e-011 1.29807e-026   
     length 1.61574   
     axis -8.50346e-015 -90 -90   XYZ
    dof ry
    limits (-180.0 0.0)
  end
  begin
     id 28
     name rhand
     direction -1 -4.48905e-011 2.59615e-026   
     length 0.463641   
     axis -1.65656e-014 -90 -90   XYZ
    dof rx rz
    limits (-90.0 90.0)
           (-45.0 45.0)
  end
  begin
     id 29
     name rfingers
     direction -1 -4.49167e-011 5.1923e-026   
     length 0.373799   
     axis -3.31313e-014 -90 -90   XYZ
    dof rx
    limits (0.0 90.0)
  end
  begin
     id 30
     name rthumb
     direction -0.707107 -6.34954e-011 0.707107   
     length 0.536703   
     axis -90 -45 -2.85299e-015   XYZ
    dof rx rz
    limits (-45.0 45.0)
           (-45.0 45.0)
  end
:hierarchy
  begin
    root lhipjoint rhipjoint lowerback
    lhipjoint lfemur
    lfemur ltibia
    ltibia lfoot
    lfoot ltoes
    rhipjoint rfemur
    rfemur rtibia
    rtibia rfoot
    rfoot rtoes
    lowerback upperback
    upperback thorax
    thorax lowerneck lclavicle rclavicle
    lowerneck upperneck
    upperneck head
    lclavicle lhumerus
    lhumerus lradius
    lradius lwrist
    lwrist lhand lthumb
    lhand lfingers
    rclavicle rhumerus
    rhumerus rradius
    rradius rwrist
    rwrist rhand rthumb
    rhand rfingers
  end

#!OML:ASF F:\VICON\USERDATA\INSTALL\rory3\rory3.ASF
:FULLY-SPECIFIED
:DEGREES
1
root 4.14202 17.564 3.95801 20.3165 -12.2008 -4.06848
lowerback -7.86178 -0.918663 7.21276
upperback -13.4236 -1.2512 3.31515
thorax -10.1084 -1.18833 -0.412067
lowerneck -4.31778 17.3901 12.5059
upperneck 13.7538 21.5859 5.63065
head 5.60678 11.4859 1.38642
rclavicle 1.70955e-014 3.89618e-014
rhumerus -10.4707 -21.2555 24.4236
rradius 121.354
rwrist -57.5213
rhand -2.19839 -45.1872
rfingers 7.12502
rthumb 23.4831 -73.7739
lclavicle 1.70955e-014 3.89618e-014
lhumerus 31.1028 33.023 -12.2528
lradius 31.17
lwrist 39.9025
lhand -26.5156 -17.871
lfingers 7.12502
lthumb 0.0477361 12.1088
rfemur -2.07652 12.1495 -1.99339
rtibia 2.02339
rfoot 24.9675 -10.0752
rtoes -35.6713
lfemur -23.1863 -3.68934 -22.9205
ltibia 20.9649
lfoot -15.247 14.6815
ltoes 11.1059
2
root 4.14084 17.5664 3.95886 20.5198 -12.5611 -4.28566
lowerback -7.97214 -0.742738 7.27212
upperback -13.3951 -1.02933 3.33231
thorax -9.99858 -1.08068 -0.433893
lowerneck -4.64054 17.3796 12.524
upperneck 13.878 21.5138 5.6392
head 5.69781 11.4565 1.42004
rclavicle 1.05356e-014 1.82882e-014
rhumerus -10.6103 -21.285 24.4607
rradius 121.351
rwrist -57.4129
rhand -2.42525 -45.2656
rfingers 7.12502
rthumb 23.2655 -73.8801
lclavicle 1.05356e-014 1.82882e-014
lhumerus 31.5663 33.5918 -11.6373
lradius 31.0064
lwrist 39.2288
lhand -26.3014 -18.0519
lfingers 7.12502
lthumb 0.25468 11.9277
rfemur -2.0876 12.4729 -1.99479
rtibia 1.40173
rfoot 25.2897 -10.1369
rtoes -35.6723
lfemur -23.4025 -3.49805 -22.7977
ltibia 21.1414
lfoot -15.2791 14.9395
ltoes 10.8479
3
root 4.14385 17.5643 3.96516 20.488 -12.5196 -4.29331
lowerback -8.07502 -0.737763 7.37856
upperback -13.3466 -1.03878 3.31327
thorax -9.88844 -1.09341 -0.517733
lowerneck -4.70823 17.3683 12.5117
upperneck 13.9916 21.486 5.63848
head 5.74347 11.4467 1.43251
rclavicle 4.09496e-014 6.36111e-015
rhumerus -10.57 -21.3316 24.4117
rradius 121.333
rwrist -57.3947
rhand -2.56082 -45.1902
rfingers 7.12502
rthumb 23.1354 -73.821
lclavicle 4.09496e-014 6.36111e-015
lhumerus 31.316 33.3741 -11.9618
lradius 31.1183
lwrist 39.5866
lhand -26.8793 -18.2627
lfingers 7.12502
lthumb -0.303533 11.7168
rfemur -2.10553 12.4515 -1.96439
rtibia 1.6348
rfoot 25.153 -10.1236
rtoes -35.775
lfemur -23.3403 -3.46727 -22.8217
ltibia 21.1608
lfoot -15.2445 14.912
ltoes 10.3925
4
root 4.14565 17.565 3.96159 20.5703 -12.6113 -4.32665
lowerback -8.1254 -0.694739 7.40826
upperback -13.3494 -0.987571 3.30945
thorax -9.86058 -1.07084 -0.539845
lowerneck -4.72773 17.3529 12.6049
upperneck 14.0782 21.4656 5.52484
head 5.79716 11.4366 1.39805
rclavicle -4.33351e-014 6.59965e-014
rhumerus -10.558 -21.3819 24.3803
rradius 121.337
rwrist -57.3639
rhand -2.64047 -45.1845
rfingers 7.12502
rthumb 23.059 -73.8249
lclavicle -4.33351e-014 6.59965e-014
lhumerus 30.9501 33.0074 -12.4753
lradius 31.2629
lwrist 40.0798
lhand -28.0588 -18.5014
lfingers 7.12502
lthumb -1.44275 11.4735
rfemur -2.38901 12.5125 -1.99462
rtibia 1.84456
rfoot 25.1251 -10.1365
rtoes -35.8782
lfemur -23.4675 -3.44869 -22.8053
ltibia 21.1992
lfoot -15.2842 14.9875
ltoes 10.4152
5
root 4.1451 17.5649 3.96329 20.2509 -12.1602 -4.08625
lowerback -7.96439 -0.890302 7.31445
upperback -13.2688 -1.23613 3.2576
thorax -9.87268 -1.18537 -0.540902
lowerneck -4.75928 17.3846 12.6753
upperneck 14.1169 21.4976 5.50109
head 5.82617 11.4547 1.39355
rclavicle -3.598e-014 -4.77083e-015
rhumerus -10.5713 -21.4987 24.3519
rradius 121.338
rwrist -57.3315
rhand -2.42671 -45.3006
rfingers 7.12502
rthumb 23.2641 -73.9153
lclavicle -3.598e-014 -4.77083e-015
lhumerus 30.9106 32.9982 -12.5354
lradius 31.2413
lwrist 40.1354
lhand -28.5735 -18.7274
lfingers 7.12502
lthumb -1.93979 11.2436
rfemur -1.96157 12.1471 -1.92928
rtibia 2.04198
rfoot 24.914 -10.1281
rtoes -35.9183
lfemur -23.2017 -3.52599 -22.9714
ltibia 21.1933
lfoot -15.3515 14.5814
ltoes 10.4468
6
root 4.14192 17.5672 3.96464 20.5119 -12.6633 -4.25869
lowerback -8.13758 -0.751481 7.24423
upperback -13.3368 -1.0614 3.33866
thorax -9.83438 -1.08932 -0.418864
lowerneck -4.65993 17.4686 12.5953
upperneck 14.1813 21.6027 5.71828
head 5.80095 11.5185 1.46561
rclavicle -9.14409e-015 -1.11319e-014
rhumerus -10.3997 -21.5234 24.2392
rradius 121.319
rwrist -57.2482
rhand -2.27126 -45.3195
rfingers 7.12502
rthumb 23.4132 -73.9152
lclavicle -9.14409e-015 -1.11319e-014
lhumerus 30.7996 32.8653 -12.6285
lradius 31.2107
lwrist 40.1047
lhand -28.5706 -18.6081
lfingers 7.12502
lthumb -1.937 11.3629
rfemur -2.67131 12.553 -2.04642
rtibia 2.40734
rfoot 24.7733 -10.1534
rtoes -36.0629
lfemur -23.3785 -3.39017 -22.8847
ltibia 21.1548
lfoot -15.3127 14.9286
ltoes 10.5511
